<?xml version="1.0" encoding="UTF-8"?>
<svg width="36px" height="36px" viewBox="0 0 36 36" version="1.1" xmlns="http://www.w3.org/2000/svg" xmlns:xlink="http://www.w3.org/1999/xlink">
    <title>缩小_普通</title>
    <g id="页面-2" stroke="none" stroke-width="1" fill="none" fill-rule="evenodd">
        <g id="数据地图-说明" transform="translate(-369.000000, -1551.000000)">
            <g id="编组-7" transform="translate(157.000000, 1488.000000)">
                <g id="缩小_普通" transform="translate(212.000000, 63.000000)">
                    <path d="M34,0.5 L2,0.5 C1.58578644,0.5 1.21078644,0.667893219 0.939339828,0.939339828 C0.667893219,1.21078644 0.5,1.58578644 0.5,2 L0.5,34 C0.5,34.4142136 0.667893219,34.7892136 0.939339828,35.0606602 C1.21078644,35.3321068 1.58578644,35.5 2,35.5 L34,35.5 C34.4142136,35.5 34.7892136,35.3321068 35.0606602,35.0606602 C35.3321068,34.7892136 35.5,34.4142136 35.5,34 L35.5,2 C35.5,1.58578644 35.3321068,1.21078644 35.0606602,0.939339828 C34.7892136,0.667893219 34.4142136,0.5 34,0.5 Z" id="矩形备份-9" stroke="#4B4B4B" fill="#181A20"></path>
                    <path d="M11,17 L25,17 C25.5522847,17 26,17.4477153 26,18 C26,18.5522847 25.5522847,19 25,19 L11,19 C10.4477153,19 10,18.5522847 10,18 C10,17.4477153 10.4477153,17 11,17 Z" id="矩形备份-8" fill="#7A839D"></path>
                </g>
            </g>
        </g>
    </g>
</svg>